<?xml version="1.0" standalone="no"?>
<!DOCTYPE svg PUBLIC "-//W3C//DTD SVG 20010904//EN"
 "http://www.w3.org/TR/2001/REC-SVG-20010904/DTD/svg10.dtd">
<svg version="1.0" xmlns="http://www.w3.org/2000/svg"
 width="500.000000pt" height="500.000000pt" viewBox="0 0 500.000000 500.000000"
 preserveAspectRatio="xMidYMid meet">

<g transform="translate(0.000000,500.000000) scale(0.100000,-0.100000)"
fill="#000000" stroke="none">
<path d="M2394 3070 c-12 -5 -24 -16 -28 -26 -5 -12 57 -143 190 -408 238
-472 353 -697 367 -714 6 -7 22 -12 36 -10 29 3 2 -45 301 543 111 220 220
432 241 471 54 98 51 149 -7 142 -25 -3 -34 -14 -70 -83 -22 -44 -97 -190
-166 -325 -69 -135 -165 -323 -212 -418 -48 -95 -91 -170 -96 -167 -5 3 -94
175 -199 383 -104 207 -215 428 -246 490 -59 117 -76 135 -111 122z"/>
<path d="M1537 3052 c-15 -17 -17 -57 -17 -365 l0 -347 -50 0 c-42 0 -52 -4
-66 -25 -15 -23 -15 -27 0 -50 14 -21 24 -25 66 -25 l50 0 0 -143 c0 -108 4
-148 14 -163 14 -18 31 -19 363 -22 191 -2 363 0 381 3 44 8 63 46 37 75 -17
19 -33 20 -359 22 l-341 3 -3 113 -3 112 354 0 c261 0 356 3 365 12 15 15 15
61 0 76 -9 9 -104 12 -365 12 l-353 0 0 315 0 315 340 0 c327 0 341 1 360 20
24 24 24 29 4 58 l-15 22 -373 0 c-349 0 -374 -1 -389 -18z"/>
</g>
</svg>
